<svg width="320" height="170" viewBox="0 0 320 170" fill="none" xmlns="http://www.w3.org/2000/svg">
<rect width="320" height="170" fill="#FFF7E4"/>
<path d="M226.548 89.6943C229.282 78.9924 240.175 72.5331 250.877 75.2675L320 92.9286V170H206.028L226.548 89.6943Z" fill="#FF932F"/>
<path d="M281 117H257C252.582 117 249 120.582 249 125V145C249 149.418 252.582 153 257 153H281C285.418 153 289 149.418 289 145V125C289 120.582 285.418 117 281 117Z" stroke="white" stroke-width="4" stroke-linecap="round" stroke-linejoin="round"/>
<path d="M261 113V121M277 113V121M249 129H289" stroke="white" stroke-width="4" stroke-linecap="round" stroke-linejoin="round"/>
<g filter="url(#filter0_d_27_12)">
<rect x="23" y="21" width="78" height="24" rx="12" fill="white"/>
</g>
<path d="M41.436 27.771H42.899V37.99H41.436V27.771ZM37.41 28.486C37.9307 28.486 38.3927 28.6363 38.796 28.937C39.1993 29.2303 39.5147 29.652 39.742 30.202C39.9767 30.7447 40.094 31.3863 40.094 32.127C40.094 32.875 39.9767 33.524 39.742 34.074C39.5147 34.6167 39.1993 35.0383 38.796 35.339C38.3927 35.6323 37.9307 35.779 37.41 35.779C36.8967 35.779 36.4383 35.6323 36.035 35.339C35.6317 35.0383 35.3127 34.6167 35.078 34.074C34.8507 33.524 34.737 32.875 34.737 32.127C34.737 31.3863 34.8507 30.7447 35.078 30.202C35.3127 29.652 35.6317 29.2303 36.035 28.937C36.4383 28.6363 36.8967 28.486 37.41 28.486ZM37.41 29.817C37.1607 29.817 36.9407 29.905 36.75 30.081C36.5593 30.257 36.409 30.5173 36.299 30.862C36.1963 31.1993 36.145 31.621 36.145 32.127C36.145 32.6257 36.1963 33.051 36.299 33.403C36.409 33.7477 36.5593 34.008 36.75 34.184C36.9407 34.36 37.1607 34.448 37.41 34.448C37.6667 34.448 37.8903 34.36 38.081 34.184C38.2717 34.008 38.4183 33.7477 38.521 33.403C38.631 33.051 38.686 32.6257 38.686 32.127C38.686 31.621 38.631 31.1993 38.521 30.862C38.4183 30.5173 38.2717 30.257 38.081 30.081C37.8903 29.905 37.6667 29.817 37.41 29.817ZM49.3771 30.488H51.9951V31.665H49.3771V30.488ZM51.6211 27.793H53.0951V35.306H51.6211V27.793ZM46.3521 36.626H53.3151V37.803H46.3521V36.626ZM46.3521 34.569H47.8151V37.297H46.3521V34.569ZM44.9881 28.464H46.4401V30.004H48.3761V28.464H49.8171V33.722H44.9881V28.464ZM46.4401 31.126V32.556H48.3761V31.126H46.4401ZM60.9972 28.915H62.2732V29.223C62.2732 29.575 62.2145 29.916 62.0972 30.246C61.9872 30.576 61.8185 30.884 61.5912 31.17C61.3638 31.4487 61.0852 31.7017 60.7552 31.929C60.4325 32.149 60.0585 32.336 59.6332 32.49C59.2078 32.644 58.7348 32.754 58.2142 32.82L57.6752 31.687C58.1298 31.6283 58.5332 31.5403 58.8852 31.423C59.2445 31.2983 59.5562 31.1553 59.8202 30.994C60.0842 30.8253 60.3042 30.6457 60.4802 30.455C60.6562 30.2643 60.7845 30.0627 60.8652 29.85C60.9532 29.6373 60.9972 29.4283 60.9972 29.223V28.915ZM61.4262 28.915H62.6912V29.223C62.6912 29.4283 62.7315 29.6373 62.8122 29.85C62.9002 30.0627 63.0322 30.2643 63.2082 30.455C63.3842 30.6457 63.6042 30.8253 63.8682 30.994C64.1395 31.1553 64.4512 31.2983 64.8032 31.423C65.1552 31.5403 65.5585 31.6283 66.0132 31.687L65.4742 32.82C64.9535 32.754 64.4805 32.644 64.0552 32.49C63.6298 32.336 63.2522 32.149 62.9222 31.929C62.5995 31.7017 62.3245 31.4487 62.0972 31.17C61.8772 30.884 61.7085 30.576 61.5912 30.246C61.4812 29.916 61.4262 29.575 61.4262 29.223V28.915ZM61.0742 34.25H62.5372V37.979H61.0742V34.25ZM57.2352 33.403H66.4532V34.58H57.2352V33.403ZM58.0492 28.31H65.6062V29.465H58.0492V28.31ZM69.9002 28.761H75.8842V29.905H69.9002V28.761ZM72.8922 30.235C73.3836 30.235 73.8162 30.3157 74.1902 30.477C74.5716 30.631 74.8686 30.8473 75.0812 31.126C75.2939 31.4047 75.4002 31.7347 75.4002 32.116C75.4002 32.4827 75.2939 32.809 75.0812 33.095C74.8686 33.3737 74.5716 33.5937 74.1902 33.755C73.8162 33.909 73.3836 33.986 72.8922 33.986C72.4082 33.986 71.9756 33.909 71.5942 33.755C71.2129 33.5937 70.9159 33.3737 70.7032 33.095C70.4906 32.809 70.3842 32.4827 70.3842 32.116C70.3842 31.7347 70.4906 31.4047 70.7032 31.126C70.9159 30.8473 71.2129 30.631 71.5942 30.477C71.9756 30.3157 72.4082 30.235 72.8922 30.235ZM72.8922 31.335C72.5696 31.335 72.3056 31.401 72.1002 31.533C71.8949 31.665 71.7922 31.8593 71.7922 32.116C71.7922 32.3653 71.8949 32.556 72.1002 32.688C72.3056 32.82 72.5696 32.886 72.8922 32.886C73.2222 32.886 73.4862 32.82 73.6842 32.688C73.8896 32.556 73.9922 32.3653 73.9922 32.116C73.9922 31.8593 73.8896 31.665 73.6842 31.533C73.4862 31.401 73.2222 31.335 72.8922 31.335ZM72.1662 27.738H73.6182V29.355H72.1662V27.738ZM76.4452 27.782H77.9082V34.932H76.4452V27.782ZM77.5122 30.51H79.2612V31.698H77.5122V30.51ZM73.9372 34.382H75.1912V34.514C75.1912 34.954 75.1032 35.3647 74.9272 35.746C74.7586 36.12 74.5092 36.4573 74.1792 36.758C73.8492 37.0587 73.4422 37.308 72.9582 37.506C72.4742 37.7113 71.9169 37.858 71.2862 37.946L70.7692 36.824C71.3119 36.758 71.7812 36.6517 72.1772 36.505C72.5806 36.351 72.9106 36.1677 73.1672 35.955C73.4312 35.7423 73.6256 35.515 73.7502 35.273C73.8749 35.0237 73.9372 34.7707 73.9372 34.514V34.382ZM74.1682 34.382H75.4002V34.514C75.4002 34.7707 75.4626 35.0237 75.5872 35.273C75.7192 35.515 75.9136 35.7423 76.1702 35.955C76.4342 36.1677 76.7642 36.351 77.1602 36.505C77.5636 36.6517 78.0366 36.758 78.5792 36.824L78.0622 37.946C77.4316 37.858 76.8742 37.7113 76.3902 37.506C75.9062 37.308 75.4992 37.0587 75.1692 36.758C74.8392 36.4573 74.5899 36.12 74.4212 35.746C74.2526 35.3647 74.1682 34.954 74.1682 34.514V34.382ZM87.0154 27.793H88.4784V32.897H87.0154V27.793ZM81.6804 33.315H88.4784V36.098H83.1434V37.132H81.7024V35.064H87.0264V34.426H81.6804V33.315ZM81.7024 36.791H88.7314V37.924H81.7024V36.791ZM80.5914 31.423H81.4714C82.2047 31.423 82.8427 31.4157 83.3854 31.401C83.928 31.3863 84.423 31.3533 84.8704 31.302C85.3177 31.2507 85.7614 31.1847 86.2014 31.104L86.3444 32.215C85.897 32.3103 85.4387 32.3837 84.9694 32.435C84.5074 32.479 83.994 32.512 83.4294 32.534C82.872 32.556 82.2194 32.567 81.4714 32.567H80.5914V31.423ZM80.5914 28.343H85.3984V29.465H82.0544V31.907H80.5914V28.343Z" fill="#FF932F"/>
<path d="M25.32 73.2H39.02V75.18H25.32V73.2ZM25.94 65.92H38.8V67.98H25.94V65.92ZM23.82 69.28H40.58V71.36H23.82V69.28ZM25.94 62.54H28.6V67.18H25.94V62.54ZM30.96 66.7H33.6V70.24H30.96V66.7ZM32.14 75.72C33.9267 75.72 35.3133 75.94 36.3 76.38C37.3 76.8067 37.8 77.4267 37.8 78.24C37.8 79.0667 37.3 79.6933 36.3 80.12C35.3133 80.56 33.9267 80.78 32.14 80.78C30.3533 80.78 28.9667 80.56 27.98 80.12C26.9933 79.6933 26.5 79.0667 26.5 78.24C26.5 77.4267 26.9933 76.8067 27.98 76.38C28.9667 75.94 30.3533 75.72 32.14 75.72ZM32.14 77.5C31.2067 77.5 30.5 77.56 30.02 77.68C29.54 77.7867 29.3 77.98 29.3 78.26C29.3 78.5267 29.54 78.72 30.02 78.84C30.5 78.9467 31.2067 79 32.14 79C33.0867 79 33.8 78.9467 34.28 78.84C34.76 78.72 35 78.5267 35 78.26C35 77.98 34.76 77.7867 34.28 77.68C33.8 77.56 33.0867 77.5 32.14 77.5ZM30.84 71.94H33.48V74.4H30.84V71.94ZM54.9184 62.24H57.5984V80.76H54.9184V62.24ZM46.7584 67.06H48.8784V68.02C48.8784 68.9933 48.7651 69.96 48.5384 70.92C48.3251 71.8667 47.9984 72.76 47.5584 73.6C47.1318 74.44 46.5918 75.1867 45.9384 75.84C45.2984 76.48 44.5584 76.9867 43.7184 77.36L42.2984 75.3C43.0584 74.9667 43.7118 74.5333 44.2584 74C44.8184 73.4533 45.2851 72.8533 45.6584 72.2C46.0318 71.5467 46.3051 70.86 46.4784 70.14C46.6651 69.42 46.7584 68.7133 46.7584 68.02V67.06ZM47.3584 67.06H49.4184V68.02C49.4184 68.6733 49.5118 69.3467 49.6984 70.04C49.8851 70.7333 50.1651 71.4 50.5384 72.04C50.9118 72.6667 51.3784 73.24 51.9384 73.76C52.5118 74.2667 53.1784 74.6867 53.9384 75.02L52.5384 77.04C51.6851 76.6933 50.9318 76.2067 50.2784 75.58C49.6384 74.9533 49.0984 74.2333 48.6584 73.42C48.2184 72.6067 47.8918 71.74 47.6784 70.82C47.4651 69.9 47.3584 68.9667 47.3584 68.02V67.06ZM42.9184 65.26H53.1984V67.36H42.9184V65.26ZM46.7584 62.68H49.4384V66.36H46.7584V62.68ZM69.5569 65.16H74.2169V67.28H69.5569V65.16ZM69.5569 69.14H74.2969V71.26H69.5569V69.14ZM61.3569 63.74H70.1169V72.8H61.3569V63.74ZM67.5169 65.82H63.9769V70.7H67.5169V65.82ZM73.4369 62.26H76.1169V75.74H73.4369V62.26ZM63.8569 78.32H76.5169V80.46H63.8569V78.32ZM63.8569 74.48H66.5169V79.44H63.8569V74.48ZM84.4242 64.18H99.5242V66.26H84.4242V64.18ZM83.6442 74.24H100.424V76.36H83.6442V74.24ZM90.6842 76.12H93.3242V80.78H90.6842V76.12ZM92.0242 66.98C94.0109 66.98 95.5642 67.2533 96.6842 67.8C97.8042 68.3467 98.3642 69.1333 98.3642 70.16C98.3642 71.1867 97.8042 71.98 96.6842 72.54C95.5642 73.0867 94.0042 73.36 92.0042 73.36C90.0176 73.36 88.4642 73.0867 87.3442 72.54C86.2242 71.98 85.6642 71.1867 85.6642 70.16C85.6642 69.1333 86.2242 68.3467 87.3442 67.8C88.4642 67.2533 90.0242 66.98 92.0242 66.98ZM92.0042 68.96C90.8042 68.96 89.9042 69.0533 89.3042 69.24C88.7176 69.4267 88.4242 69.7333 88.4242 70.16C88.4242 70.5733 88.7176 70.88 89.3042 71.08C89.9042 71.28 90.8042 71.38 92.0042 71.38C93.2176 71.38 94.1176 71.28 94.7042 71.08C95.3042 70.88 95.6042 70.5733 95.6042 70.16C95.6042 69.7333 95.3042 69.4267 94.7042 69.24C94.1176 69.0533 93.2176 68.96 92.0042 68.96ZM90.6842 62.24H93.3242V65.56H90.6842V62.24ZM106.723 73.52H109.383V76.52H106.723V73.52ZM114.823 62.26H117.483V80.78H114.823V62.26ZM102.443 77.7L102.123 75.54C103.243 75.54 104.463 75.5333 105.783 75.52C107.103 75.5067 108.456 75.46 109.843 75.38C111.243 75.3 112.589 75.1733 113.883 75L114.063 76.92C112.716 77.16 111.356 77.34 109.983 77.46C108.623 77.5667 107.303 77.6333 106.023 77.66C104.743 77.6867 103.549 77.7 102.443 77.7ZM102.483 64.3H113.643V66.38H102.483V64.3ZM108.063 67.1C108.969 67.1 109.769 67.2467 110.463 67.54C111.156 67.8333 111.696 68.24 112.083 68.76C112.483 69.28 112.683 69.8867 112.683 70.58C112.683 71.26 112.483 71.8667 112.083 72.4C111.696 72.92 111.156 73.3267 110.463 73.62C109.769 73.9133 108.969 74.06 108.063 74.06C107.156 74.06 106.356 73.9133 105.663 73.62C104.969 73.3267 104.423 72.92 104.023 72.4C103.636 71.8667 103.443 71.26 103.443 70.58C103.443 69.8867 103.636 69.28 104.023 68.76C104.423 68.24 104.969 67.8333 105.663 67.54C106.356 67.2467 107.156 67.1 108.063 67.1ZM108.063 69.1C107.449 69.1 106.949 69.2333 106.563 69.5C106.176 69.7533 105.983 70.1133 105.983 70.58C105.983 71.06 106.176 71.4267 106.563 71.68C106.949 71.9333 107.449 72.06 108.063 72.06C108.676 72.06 109.176 71.9333 109.563 71.68C109.949 71.4267 110.143 71.06 110.143 70.58C110.143 70.1133 109.949 69.7533 109.563 69.5C109.176 69.2333 108.676 69.1 108.063 69.1ZM106.723 62.32H109.403V65.5H106.723V62.32ZM132.341 62.24H135.001V72.24H132.341V62.24ZM133.961 66.18H137.461V68.34H133.961V66.18ZM122.781 72.98H135.001V77.68H125.441V79.34H122.801V75.86H132.381V74.9H122.781V72.98ZM122.801 78.7H135.541V80.66H122.801V78.7ZM120.441 63.62H131.321V65.6H120.441V63.62ZM125.881 66.04C127.268 66.04 128.374 66.3133 129.201 66.86C130.028 67.4067 130.441 68.1467 130.441 69.08C130.441 70.0133 130.028 70.7533 129.201 71.3C128.374 71.8333 127.268 72.1 125.881 72.1C124.508 72.1 123.401 71.8333 122.561 71.3C121.734 70.7533 121.321 70.0133 121.321 69.08C121.321 68.1467 121.734 67.4067 122.561 66.86C123.401 66.3133 124.508 66.04 125.881 66.04ZM125.881 67.92C125.268 67.92 124.781 68.02 124.421 68.22C124.061 68.4067 123.881 68.6933 123.881 69.08C123.881 69.4667 124.061 69.7533 124.421 69.94C124.781 70.1267 125.268 70.22 125.881 70.22C126.508 70.22 126.994 70.1267 127.341 69.94C127.701 69.7533 127.881 69.4667 127.881 69.08C127.881 68.6933 127.701 68.4067 127.341 68.22C126.994 68.02 126.508 67.92 125.881 67.92ZM124.561 62.12H127.201V65.02H124.561V62.12ZM36.54 92.26H39.2V105.56H36.54V92.26ZM26.86 108.32H39.68V110.46H26.86V108.32ZM26.86 104.24H29.52V109.2H26.86V104.24ZM29.12 93.44C30.0667 93.44 30.92 93.64 31.68 94.04C32.44 94.44 33.04 94.9933 33.48 95.7C33.9333 96.4067 34.16 97.22 34.16 98.14C34.16 99.0333 33.9333 99.84 33.48 100.56C33.04 101.267 32.44 101.827 31.68 102.24C30.92 102.64 30.0667 102.84 29.12 102.84C28.1733 102.84 27.32 102.64 26.56 102.24C25.8 101.827 25.1933 101.267 24.74 100.56C24.3 99.84 24.08 99.0333 24.08 98.14C24.08 97.22 24.3 96.4067 24.74 95.7C25.1933 94.9933 25.8 94.44 26.56 94.04C27.32 93.64 28.1733 93.44 29.12 93.44ZM29.12 95.72C28.6667 95.72 28.2533 95.82 27.88 96.02C27.5067 96.2067 27.2133 96.48 27 96.84C26.7867 97.1867 26.68 97.62 26.68 98.14C26.68 98.6333 26.7867 99.06 27 99.42C27.2133 99.7667 27.5067 100.04 27.88 100.24C28.2533 100.427 28.6667 100.52 29.12 100.52C29.5733 100.52 29.9867 100.427 30.36 100.24C30.7333 100.04 31.0267 99.7667 31.24 99.42C31.4533 99.06 31.56 98.6333 31.56 98.14C31.56 97.62 31.4533 97.1867 31.24 96.84C31.0267 96.48 30.7333 96.2067 30.36 96.02C29.9867 95.82 29.5733 95.72 29.12 95.72ZM54.9784 92.24H57.6384V110.76H54.9784V92.24ZM49.5184 94.16H52.1384C52.1384 95.5733 51.9984 96.9267 51.7184 98.22C51.4518 99.5 50.9984 100.707 50.3584 101.84C49.7318 102.973 48.8651 104.027 47.7584 105C46.6651 105.96 45.2984 106.84 43.6584 107.64L42.2584 105.54C44.0451 104.673 45.4651 103.72 46.5184 102.68C47.5851 101.627 48.3518 100.44 48.8184 99.12C49.2851 97.7867 49.5184 96.2933 49.5184 94.64V94.16ZM43.2584 94.16H50.7584V96.28H43.2584V94.16ZM73.5058 103.78C74.8391 103.78 75.9991 103.92 76.9858 104.2C77.9724 104.48 78.7324 104.88 79.2658 105.4C79.8124 105.92 80.0858 106.547 80.0858 107.28C80.0858 108 79.8124 108.62 79.2658 109.14C78.7324 109.673 77.9724 110.08 76.9858 110.36C75.9991 110.64 74.8391 110.78 73.5058 110.78C72.1858 110.78 71.0324 110.64 70.0458 110.36C69.0591 110.08 68.2924 109.673 67.7458 109.14C67.2124 108.62 66.9458 108 66.9458 107.28C66.9458 106.547 67.2124 105.92 67.7458 105.4C68.2924 104.88 69.0591 104.48 70.0458 104.2C71.0324 103.92 72.1858 103.78 73.5058 103.78ZM73.5058 105.78C72.6791 105.78 71.9724 105.833 71.3858 105.94C70.7991 106.047 70.3524 106.213 70.0458 106.44C69.7524 106.667 69.6058 106.947 69.6058 107.28C69.6058 107.613 69.7524 107.893 70.0458 108.12C70.3524 108.333 70.7991 108.5 71.3858 108.62C71.9724 108.727 72.6791 108.78 73.5058 108.78C74.3458 108.78 75.0591 108.727 75.6458 108.62C76.2324 108.5 76.6791 108.333 76.9858 108.12C77.2924 107.893 77.4458 107.613 77.4458 107.28C77.4458 106.947 77.2924 106.667 76.9858 106.44C76.6791 106.213 76.2324 106.047 75.6458 105.94C75.0591 105.833 74.3458 105.78 73.5058 105.78ZM67.1458 93.08H78.8858V95.16H67.1458V93.08ZM65.2858 100.52H81.9458V102.62H65.2858V100.52ZM71.4458 97.28H74.1058V101.04H71.4458V97.28ZM77.3258 93.08H79.9858V94.6C79.9858 95.3333 79.9658 96.1 79.9258 96.9C79.8858 97.7 79.7324 98.58 79.4658 99.54L76.8258 99.28C77.0791 98.3333 77.2258 97.4933 77.2658 96.76C77.3058 96.0267 77.3258 95.3067 77.3258 94.6V93.08ZM85.5642 93.32H97.1642V95.42H85.5642V93.32ZM83.6442 101.2H100.404V103.36H83.6442V101.2ZM90.5842 102.72H93.2642V110.78H90.5842V102.72ZM95.8042 93.32H98.4242V94.96C98.4242 95.6267 98.4109 96.3333 98.3842 97.08C98.3709 97.8267 98.3176 98.6467 98.2242 99.54C98.1309 100.42 97.9576 101.407 97.7042 102.5L95.1042 102.18C95.4509 100.647 95.6509 99.3067 95.7042 98.16C95.7709 97 95.8042 95.9333 95.8042 94.96V93.32ZM106.562 96.9901V94.4545H118.508V96.9901H114.055V109H111.015V96.9901H106.562ZM133.178 101.727C133.178 103.313 132.877 104.663 132.276 105.776C131.679 106.888 130.865 107.738 129.832 108.325C128.805 108.908 127.65 109.199 126.366 109.199C125.074 109.199 123.914 108.905 122.886 108.318C121.859 107.731 121.047 106.881 120.45 105.768C119.854 104.656 119.555 103.309 119.555 101.727C119.555 100.141 119.854 98.7917 120.45 97.679C121.047 96.5663 121.859 95.7187 122.886 95.1364C123.914 94.5492 125.074 94.2557 126.366 94.2557C127.65 94.2557 128.805 94.5492 129.832 95.1364C130.865 95.7187 131.679 96.5663 132.276 97.679C132.877 98.7917 133.178 100.141 133.178 101.727ZM130.06 101.727C130.06 100.7 129.906 99.8333 129.598 99.1278C129.295 98.4223 128.866 97.8873 128.312 97.5227C127.759 97.1581 127.11 96.9759 126.366 96.9759C125.623 96.9759 124.974 97.1581 124.42 97.5227C123.866 97.8873 123.436 98.4223 123.128 99.1278C122.825 99.8333 122.673 100.7 122.673 101.727C122.673 102.755 122.825 103.621 123.128 104.327C123.436 105.032 123.866 105.567 124.42 105.932C124.974 106.296 125.623 106.479 126.366 106.479C127.11 106.479 127.759 106.296 128.312 105.932C128.866 105.567 129.295 105.032 129.598 104.327C129.906 103.621 130.06 102.755 130.06 101.727ZM135.456 109V94.4545H141.194C142.297 94.4545 143.237 94.6652 144.014 95.0866C144.79 95.5033 145.382 96.0833 145.789 96.8267C146.201 97.5653 146.407 98.4176 146.407 99.3835C146.407 100.349 146.199 101.202 145.782 101.94C145.366 102.679 144.762 103.254 143.971 103.666C143.185 104.078 142.234 104.284 141.116 104.284H137.458V101.82H140.619C141.211 101.82 141.699 101.718 142.082 101.514C142.47 101.306 142.759 101.019 142.949 100.655C143.143 100.286 143.24 99.8617 143.24 99.3835C143.24 98.9006 143.143 98.4792 142.949 98.1193C142.759 97.7547 142.47 97.473 142.082 97.2741C141.694 97.0705 141.201 96.9688 140.605 96.9688H138.531V109H135.456ZM159.277 94.4545V109H156.201V97.3736H156.116L152.785 99.4616V96.7344L156.386 94.4545H159.277ZM168.437 109.32C167.215 109.315 166.164 109.014 165.283 108.418C164.407 107.821 163.733 106.957 163.259 105.825C162.79 104.694 162.558 103.332 162.563 101.741C162.563 100.155 162.798 98.8035 163.266 97.6861C163.74 96.5687 164.415 95.7187 165.29 95.1364C166.171 94.5492 167.22 94.2557 168.437 94.2557C169.654 94.2557 170.7 94.5492 171.576 95.1364C172.457 95.7235 173.134 96.5758 173.607 97.6932C174.081 98.8059 174.315 100.155 174.31 101.741C174.31 103.337 174.074 104.701 173.6 105.832C173.131 106.964 172.459 107.828 171.583 108.425C170.707 109.021 169.658 109.32 168.437 109.32ZM168.437 106.77C169.27 106.77 169.935 106.351 170.433 105.513C170.93 104.675 171.176 103.418 171.171 101.741C171.171 100.638 171.058 99.7197 170.83 98.9858C170.608 98.2519 170.29 97.7003 169.879 97.331C169.471 96.9616 168.991 96.777 168.437 96.777C167.608 96.777 166.945 97.1913 166.448 98.0199C165.951 98.8485 165.7 100.089 165.695 101.741C165.695 102.859 165.807 103.792 166.029 104.54C166.256 105.283 166.576 105.842 166.988 106.216C167.4 106.585 167.883 106.77 168.437 106.77Z" fill="black"/>
<path d="M26.648 135.588H27.188V137.652C27.188 138.18 27.096 138.708 26.912 139.236C26.736 139.756 26.5 140.248 26.204 140.712C25.908 141.176 25.576 141.584 25.208 141.936C24.84 142.288 24.468 142.564 24.092 142.764L23.708 142.248C24.06 142.072 24.408 141.824 24.752 141.504C25.104 141.184 25.42 140.812 25.7 140.388C25.988 139.964 26.216 139.52 26.384 139.056C26.56 138.584 26.648 138.116 26.648 137.652V135.588ZM26.756 135.588H27.296V137.652C27.296 138.108 27.38 138.564 27.548 139.02C27.724 139.468 27.956 139.888 28.244 140.28C28.54 140.664 28.86 141.008 29.204 141.312C29.556 141.608 29.912 141.836 30.272 141.996L29.9 142.512C29.508 142.32 29.124 142.064 28.748 141.744C28.38 141.416 28.044 141.036 27.74 140.604C27.444 140.164 27.204 139.696 27.02 139.2C26.844 138.704 26.756 138.188 26.756 137.652V135.588ZM24.008 135.288H29.972V135.84H24.008V135.288ZM31.7 134.16H32.336V144.852H31.7V134.16ZM35.9711 134.772H42.9191V135.312H35.9711V134.772ZM34.6991 138.768H44.4071V139.308H34.6991V138.768ZM42.4511 134.772H43.0751V135.528C43.0751 135.976 43.0591 136.48 43.0271 137.04C43.0031 137.6 42.8951 138.264 42.7031 139.032L42.0791 138.96C42.2631 138.208 42.3711 137.556 42.4031 137.004C42.4351 136.452 42.4511 135.96 42.4511 135.528V134.772ZM35.9231 140.976H43.1591V144.696H35.9231V140.976ZM42.5351 141.504H36.5591V144.156H42.5351V141.504ZM56.6011 134.148H57.2491V144.852H56.6011V134.148ZM57.0691 138.648H59.0851V139.2H57.0691V138.648ZM53.9131 135.336H54.5371C54.5371 136.312 54.3651 137.256 54.0211 138.168C53.6771 139.08 53.1451 139.924 52.4251 140.7C51.7051 141.476 50.7771 142.148 49.6411 142.716L49.2811 142.212C50.3051 141.7 51.1571 141.096 51.8371 140.4C52.5251 139.696 53.0411 138.924 53.3851 138.084C53.7371 137.236 53.9131 136.348 53.9131 135.42V135.336ZM49.7251 135.336H54.2491V135.888H49.7251V135.336ZM62.9482 135.276H63.4762V136.26C63.4762 136.9 63.3442 137.488 63.0802 138.024C62.8162 138.56 62.4602 139.024 62.0122 139.416C61.5642 139.808 61.0642 140.112 60.5122 140.328L60.1762 139.812C60.6802 139.628 61.1402 139.364 61.5562 139.02C61.9802 138.668 62.3162 138.256 62.5642 137.784C62.8202 137.312 62.9482 136.804 62.9482 136.26V135.276ZM63.0442 135.276H63.5842V136.248C63.5842 136.744 63.7042 137.208 63.9442 137.64C64.1842 138.072 64.5042 138.452 64.9042 138.78C65.3122 139.1 65.7642 139.348 66.2602 139.524L65.9482 140.028C65.4042 139.836 64.9122 139.556 64.4722 139.188C64.0402 138.82 63.6922 138.384 63.4282 137.88C63.1722 137.376 63.0442 136.832 63.0442 136.248V135.276ZM60.4042 134.988H66.0922V135.54H60.4042V134.988ZM67.7482 134.16H68.3842V140.664H67.7482V134.16ZM68.2162 137.028H70.0642V137.58H68.2162V137.028ZM65.0242 141.012C65.7442 141.012 66.3602 141.088 66.8722 141.24C67.3922 141.392 67.7882 141.608 68.0602 141.888C68.3402 142.16 68.4802 142.5 68.4802 142.908C68.4802 143.308 68.3402 143.652 68.0602 143.94C67.7882 144.228 67.3922 144.444 66.8722 144.588C66.3602 144.74 65.7442 144.816 65.0242 144.816C64.3122 144.816 63.6962 144.74 63.1762 144.588C62.6642 144.444 62.2682 144.228 61.9882 143.94C61.7162 143.652 61.5802 143.308 61.5802 142.908C61.5802 142.5 61.7162 142.16 61.9882 141.888C62.2682 141.608 62.6642 141.392 63.1762 141.24C63.6962 141.088 64.3122 141.012 65.0242 141.012ZM65.0242 141.54C64.4562 141.54 63.9602 141.596 63.5362 141.708C63.1122 141.82 62.7842 141.98 62.5522 142.188C62.3202 142.388 62.2042 142.628 62.2042 142.908C62.2042 143.188 62.3202 143.432 62.5522 143.64C62.7842 143.848 63.1122 144.008 63.5362 144.12C63.9602 144.232 64.4562 144.288 65.0242 144.288C65.6002 144.288 66.1002 144.232 66.5242 144.12C66.9562 144.008 67.2842 143.848 67.5082 143.64C67.7402 143.432 67.8562 143.188 67.8562 142.908C67.8562 142.628 67.7402 142.388 67.5082 142.188C67.2842 141.98 66.9562 141.82 66.5242 141.708C66.1002 141.596 65.6002 141.54 65.0242 141.54ZM74.6143 135.468H80.9503V135.996H74.6143V135.468ZM77.7823 136.692C78.2863 136.692 78.7263 136.768 79.1023 136.92C79.4783 137.072 79.7703 137.292 79.9783 137.58C80.1863 137.86 80.2903 138.196 80.2903 138.588C80.2903 138.972 80.1863 139.308 79.9783 139.596C79.7703 139.884 79.4783 140.108 79.1023 140.268C78.7263 140.42 78.2863 140.496 77.7823 140.496C77.2783 140.496 76.8343 140.42 76.4503 140.268C76.0743 140.108 75.7783 139.884 75.5623 139.596C75.3543 139.308 75.2503 138.972 75.2503 138.588C75.2503 138.196 75.3543 137.86 75.5623 137.58C75.7783 137.292 76.0743 137.072 76.4503 136.92C76.8343 136.768 77.2783 136.692 77.7823 136.692ZM77.7823 137.208C77.2063 137.208 76.7423 137.336 76.3903 137.592C76.0383 137.84 75.8623 138.172 75.8623 138.588C75.8623 138.996 76.0383 139.328 76.3903 139.584C76.7423 139.84 77.2063 139.968 77.7823 139.968C78.3503 139.968 78.8063 139.84 79.1503 139.584C79.5023 139.328 79.6783 138.996 79.6783 138.588C79.6783 138.172 79.5023 137.84 79.1503 137.592C78.8063 137.336 78.3503 137.208 77.7823 137.208ZM77.4583 134.064H78.1063V135.708H77.4583V134.064ZM82.1623 134.16H82.7983V141.66H82.1623V134.16ZM82.6303 137.4H84.4783V137.964H82.6303V137.4ZM79.3543 141.048H79.9062V141.228C79.9062 141.732 79.7863 142.188 79.5463 142.596C79.3143 142.996 78.9983 143.344 78.5983 143.64C78.2063 143.936 77.7743 144.18 77.3023 144.372C76.8303 144.572 76.3583 144.72 75.8863 144.816L75.6343 144.3C76.0503 144.228 76.4743 144.108 76.9062 143.94C77.3463 143.764 77.7503 143.548 78.1183 143.292C78.4943 143.028 78.7943 142.724 79.0183 142.38C79.2423 142.036 79.3543 141.652 79.3543 141.228V141.048ZM79.4503 141.048H79.9903V141.228C79.9903 141.652 80.1023 142.036 80.3263 142.38C80.5583 142.724 80.8583 143.028 81.2263 143.292C81.5943 143.548 81.9943 143.764 82.4263 143.94C82.8663 144.108 83.2943 144.228 83.7103 144.3L83.4583 144.816C82.9943 144.72 82.5263 144.572 82.0543 144.372C81.5823 144.18 81.1463 143.936 80.7463 143.64C80.3543 143.344 80.0383 142.996 79.7983 142.596C79.5663 142.188 79.4503 141.732 79.4503 141.228V141.048ZM93.2013 134.172H93.8373V142.2H93.2013V134.172ZM93.6093 137.832H95.5173V138.384H93.6093V137.832ZM85.6533 135.576H91.9893V136.116H85.6533V135.576ZM88.8213 136.836C89.3253 136.836 89.7653 136.916 90.1413 137.076C90.5173 137.236 90.8093 137.464 91.0173 137.76C91.2253 138.048 91.3293 138.392 91.3293 138.792C91.3293 139.184 91.2253 139.524 91.0173 139.812C90.8093 140.1 90.5173 140.328 90.1413 140.496C89.7653 140.656 89.3253 140.736 88.8213 140.736C88.3173 140.736 87.8733 140.656 87.4893 140.496C87.1133 140.328 86.8173 140.1 86.6013 139.812C86.3933 139.524 86.2893 139.184 86.2893 138.792C86.2893 138.392 86.3933 138.048 86.6013 137.76C86.8173 137.464 87.1133 137.236 87.4893 137.076C87.8733 136.916 88.3173 136.836 88.8213 136.836ZM88.8213 137.352C88.2453 137.352 87.7813 137.488 87.4293 137.76C87.0773 138.024 86.9013 138.368 86.9013 138.792C86.9013 139.208 87.0773 139.548 87.4293 139.812C87.7813 140.076 88.2453 140.208 88.8213 140.208C89.3893 140.208 89.8453 140.076 90.1893 139.812C90.5413 139.548 90.7173 139.208 90.7173 138.792C90.7173 138.368 90.5413 138.024 90.1893 137.76C89.8453 137.488 89.3893 137.352 88.8213 137.352ZM88.4973 134.172H89.1453V135.876H88.4973V134.172ZM87.3213 144.036H94.3773V144.588H87.3213V144.036ZM87.3213 141.54H87.9573V144.264H87.3213V141.54ZM102.851 135.024C103.371 135.024 103.827 135.176 104.219 135.48C104.611 135.784 104.915 136.212 105.131 136.764C105.355 137.308 105.467 137.956 105.467 138.708C105.467 139.452 105.355 140.1 105.131 140.652C104.915 141.204 104.611 141.632 104.219 141.936C103.827 142.232 103.371 142.38 102.851 142.38C102.347 142.38 101.895 142.232 101.495 141.936C101.103 141.632 100.795 141.204 100.571 140.652C100.355 140.1 100.247 139.452 100.247 138.708C100.247 137.956 100.355 137.308 100.571 136.764C100.795 136.212 101.103 135.784 101.495 135.48C101.895 135.176 102.347 135.024 102.851 135.024ZM102.851 135.588C102.459 135.588 102.111 135.724 101.807 135.996C101.503 136.26 101.267 136.624 101.099 137.088C100.931 137.552 100.847 138.092 100.847 138.708C100.847 139.316 100.931 139.856 101.099 140.328C101.267 140.8 101.503 141.168 101.807 141.432C102.111 141.696 102.459 141.828 102.851 141.828C103.251 141.828 103.599 141.696 103.895 141.432C104.199 141.168 104.435 140.8 104.603 140.328C104.771 139.856 104.855 139.316 104.855 138.708C104.855 138.092 104.771 137.552 104.603 137.088C104.435 136.624 104.199 136.26 103.895 135.996C103.591 135.724 103.243 135.588 102.851 135.588ZM107.507 134.16H108.155V144.852H107.507V134.16ZM107.987 138.576H110.027V139.128H107.987V138.576ZM119.098 134.148H119.734V144.864H119.098V134.148ZM114.166 135.024C114.686 135.024 115.146 135.176 115.546 135.48C115.946 135.784 116.258 136.212 116.482 136.764C116.714 137.308 116.83 137.956 116.83 138.708C116.83 139.452 116.714 140.1 116.482 140.652C116.258 141.204 115.946 141.632 115.546 141.936C115.146 142.232 114.686 142.38 114.166 142.38C113.654 142.38 113.194 142.232 112.786 141.936C112.386 141.632 112.07 141.204 111.838 140.652C111.614 140.1 111.502 139.452 111.502 138.708C111.502 137.956 111.614 137.308 111.838 136.764C112.07 136.212 112.386 135.784 112.786 135.48C113.194 135.176 113.654 135.024 114.166 135.024ZM114.166 135.588C113.766 135.588 113.41 135.724 113.098 135.996C112.794 136.26 112.554 136.624 112.378 137.088C112.21 137.552 112.126 138.092 112.126 138.708C112.126 139.316 112.21 139.856 112.378 140.328C112.554 140.8 112.794 141.168 113.098 141.432C113.41 141.696 113.766 141.828 114.166 141.828C114.566 141.828 114.918 141.696 115.222 141.432C115.534 141.168 115.774 140.8 115.942 140.328C116.118 139.856 116.206 139.316 116.206 138.708C116.206 138.092 116.118 137.552 115.942 137.088C115.774 136.624 115.534 136.26 115.222 135.996C114.918 135.724 114.566 135.588 114.166 135.588ZM126.754 136.908H128.698V137.46H126.754V136.908ZM122.638 139.296H123.274C123.866 139.296 124.382 139.292 124.822 139.284C125.262 139.268 125.674 139.236 126.058 139.188C126.442 139.132 126.834 139.064 127.234 138.984L127.306 139.512C126.898 139.6 126.498 139.668 126.106 139.716C125.714 139.764 125.294 139.796 124.846 139.812C124.398 139.828 123.874 139.836 123.274 139.836H122.638V139.296ZM122.638 134.892H126.682V135.432H123.262V139.62H122.638V134.892ZM123.046 137.016H126.238V137.556H123.046V137.016ZM130.438 134.16H131.05V140.628H130.438V134.16ZM128.386 134.352H129.01V140.52H128.386V134.352ZM124.162 141.18H131.05V144.696H124.162V141.18ZM130.438 141.72H124.798V144.156H130.438V141.72ZM137.973 134.364C139.125 134.364 140.029 134.524 140.685 134.844C141.341 135.164 141.669 135.624 141.669 136.224C141.669 136.832 141.341 137.3 140.685 137.628C140.029 137.948 139.125 138.108 137.973 138.108C136.813 138.108 135.905 137.948 135.249 137.628C134.593 137.3 134.265 136.832 134.265 136.224C134.265 135.624 134.593 135.164 135.249 134.844C135.905 134.524 136.813 134.364 137.973 134.364ZM137.961 134.868C137.345 134.868 136.809 134.924 136.353 135.036C135.897 135.14 135.545 135.296 135.297 135.504C135.049 135.704 134.925 135.944 134.925 136.224C134.925 136.512 135.049 136.756 135.297 136.956C135.545 137.156 135.897 137.312 136.353 137.424C136.809 137.536 137.345 137.592 137.961 137.592C138.593 137.592 139.133 137.536 139.581 137.424C140.037 137.312 140.389 137.156 140.637 136.956C140.885 136.756 141.009 136.512 141.009 136.224C141.009 135.944 140.885 135.704 140.637 135.504C140.389 135.296 140.037 135.14 139.581 135.036C139.133 134.924 138.593 134.868 137.961 134.868ZM133.137 138.948H142.797V139.488H133.137V138.948ZM134.349 140.592H141.525V142.8H135.009V144.3H134.385V142.296H140.889V141.108H134.349V140.592ZM134.385 144.18H141.873V144.708H134.385V144.18ZM148.079 135.168H152.879V139.992H148.079V135.168ZM152.267 135.708H148.691V139.452H152.267V135.708ZM155.147 134.148H155.783V142.02H155.147V134.148ZM155.555 137.508H157.463V138.06H155.555V137.508ZM149.267 144.036H156.323V144.588H149.267V144.036ZM149.267 141.288H149.903V144.216H149.267V141.288ZM166.546 138.552H168.562V139.116H166.546V138.552ZM166.078 134.148H166.726V144.852H166.078V134.148ZM159.082 135.216H159.718V141.84H159.082V135.216ZM159.082 141.54H159.886C160.694 141.54 161.506 141.504 162.322 141.432C163.146 141.36 164.006 141.228 164.902 141.036L164.998 141.6C164.07 141.784 163.194 141.912 162.37 141.984C161.546 142.048 160.718 142.08 159.886 142.08H159.082V141.54ZM169.629 142.872H179.337V143.424H169.629V142.872ZM174.141 140.136H174.777V143.064H174.141V140.136ZM170.841 134.952H171.477V137.028H177.477V134.952H178.101V140.364H170.841V134.952ZM171.477 137.58V139.824H177.477V137.58H171.477ZM184.892 138.132H187.112V138.684H184.892V138.132ZM183.08 135.216H183.596V137.4C183.596 137.928 183.528 138.444 183.392 138.948C183.264 139.452 183.084 139.928 182.852 140.376C182.628 140.824 182.356 141.228 182.036 141.588C181.724 141.94 181.388 142.228 181.028 142.452L180.596 141.96C180.948 141.76 181.272 141.5 181.568 141.18C181.872 140.852 182.136 140.484 182.36 140.076C182.592 139.66 182.768 139.224 182.888 138.768C183.016 138.312 183.08 137.856 183.08 137.4V135.216ZM183.176 135.216H183.692V137.376C183.692 137.8 183.748 138.228 183.86 138.66C183.98 139.092 184.148 139.504 184.364 139.896C184.58 140.28 184.832 140.632 185.12 140.952C185.416 141.272 185.736 141.528 186.08 141.72L185.684 142.212C185.316 141.996 184.98 141.716 184.676 141.372C184.372 141.028 184.108 140.64 183.884 140.208C183.66 139.768 183.484 139.308 183.356 138.828C183.236 138.348 183.176 137.864 183.176 137.376V135.216ZM189.08 134.16H189.704V144.852H189.08V134.16ZM186.908 134.424H187.52V144.288H186.908V134.424ZM194.239 139.704H194.863V143.028H194.239V139.704ZM198.223 139.704H198.871V143.028H198.223V139.704ZM191.707 142.86H201.415V143.412H191.707V142.86ZM196.531 134.928C197.283 134.928 197.943 135.04 198.511 135.264C199.087 135.48 199.539 135.788 199.867 136.188C200.195 136.588 200.359 137.06 200.359 137.604C200.359 138.14 200.195 138.612 199.867 139.02C199.539 139.42 199.087 139.732 198.511 139.956C197.943 140.172 197.283 140.28 196.531 140.28C195.795 140.28 195.139 140.172 194.563 139.956C193.987 139.732 193.535 139.42 193.207 139.02C192.879 138.612 192.715 138.14 192.715 137.604C192.715 137.06 192.879 136.588 193.207 136.188C193.535 135.788 193.987 135.48 194.563 135.264C195.139 135.04 195.795 134.928 196.531 134.928ZM196.531 135.444C195.923 135.444 195.375 135.536 194.887 135.72C194.399 135.904 194.015 136.16 193.735 136.488C193.455 136.808 193.315 137.18 193.315 137.604C193.315 138.028 193.455 138.4 193.735 138.72C194.015 139.04 194.399 139.292 194.887 139.476C195.375 139.66 195.923 139.752 196.531 139.752C197.155 139.752 197.707 139.66 198.187 139.476C198.675 139.292 199.059 139.04 199.339 138.72C199.619 138.4 199.759 138.028 199.759 137.604C199.759 137.18 199.619 136.808 199.339 136.488C199.059 136.16 198.675 135.904 198.187 135.72C197.707 135.536 197.155 135.444 196.531 135.444Z" fill="#3E3E3E"/>
<defs>
<filter id="filter0_d_27_12" x="21" y="20" width="82" height="28" filterUnits="userSpaceOnUse" color-interpolation-filters="sRGB">
<feFlood flood-opacity="0" result="BackgroundImageFix"/>
<feColorMatrix in="SourceAlpha" type="matrix" values="0 0 0 0 0 0 0 0 0 0 0 0 0 0 0 0 0 0 127 0" result="hardAlpha"/>
<feOffset dy="1"/>
<feGaussianBlur stdDeviation="1"/>
<feComposite in2="hardAlpha" operator="out"/>
<feColorMatrix type="matrix" values="0 0 0 0 0 0 0 0 0 0 0 0 0 0 0 0 0 0 0.2 0"/>
<feBlend mode="normal" in2="BackgroundImageFix" result="effect1_dropShadow_27_12"/>
<feBlend mode="normal" in="SourceGraphic" in2="effect1_dropShadow_27_12" result="shape"/>
</filter>
</defs>
</svg>
